<svg width="88" height="88" viewBox="0 0 88 88" fill="none" xmlns="http://www.w3.org/2000/svg">
<rect x="1" y="1" width="86" height="86" rx="20" stroke="#35A1FF" stroke-width="2"/>
<path d="M43.5 39.625C45.9968 39.625 48.0208 37.601 48.0208 35.1042C48.0208 32.6074 45.9968 30.5834 43.5 30.5834C41.0032 30.5834 38.9792 32.6074 38.9792 35.1042C38.9792 37.601 41.0032 39.625 43.5 39.625Z" stroke="#35A1FF" stroke-width="2" stroke-linecap="round" stroke-linejoin="round"/>
<path d="M30.5833 54.4792C30.5833 48.772 35.7881 44.1459 42.2083 44.1459" stroke="#35A1FF" stroke-width="2" stroke-linecap="round" stroke-linejoin="round"/>
<path d="M46.0833 46.8584C46.0833 46.1693 50.6042 44.7917 50.6042 44.7917C50.6042 44.7917 55.125 46.1693 55.125 46.8584C55.125 52.3693 50.6042 55.1251 50.6042 55.1251C50.6042 55.1251 46.0833 52.3693 46.0833 46.8584Z" stroke="#35A1FF" stroke-width="2" stroke-linecap="round" stroke-linejoin="round"/>
</svg>
