<svg width="88" height="88" viewBox="0 0 88 88" fill="none" xmlns="http://www.w3.org/2000/svg">
<rect x="1" y="1" width="86" height="86" rx="20" stroke="#35A1FF" stroke-width="2"/>
<path fill-rule="evenodd" clip-rule="evenodd" d="M55.3741 31.2929C55.6419 31.5608 55.7354 31.9569 55.6156 32.3163L47.6153 56.3163C47.4874 56.7 47.1409 56.9688 46.7375 56.9975C46.334 57.0262 45.9531 56.809 45.7722 56.4472L40.5879 46.0787L30.2194 40.8944C29.8576 40.7136 29.6404 40.3326 29.6691 39.9291C29.6978 39.5257 29.9667 39.1792 30.3504 39.0513L54.3507 31.0513C54.7101 30.9316 55.1062 31.0251 55.3741 31.2929ZM42.55 45.5308L46.4814 53.3935L53.0858 33.5812L33.2732 40.1853L41.1358 44.1166L45.2931 39.9596C45.6836 39.5691 46.3168 39.5691 46.7073 39.9596C47.0978 40.3502 47.0978 40.9833 46.7073 41.3739L42.55 45.5308Z" fill="#35A1FF"/>
</svg>
