<svg width="88" height="88" viewBox="0 0 88 88" fill="none" xmlns="http://www.w3.org/2000/svg">
<rect x="1" y="1" width="86" height="86" rx="20" stroke="#35A1FF" stroke-width="2"/>
<path d="M55 37H35C34.7348 37 34.4804 36.8946 34.2929 36.7071C34.1054 36.5196 34 36.2652 34 36C34 35.7348 34.1054 35.4804 34.2929 35.2929C34.4804 35.1054 34.7348 35 35 35H52C52.2652 35 52.5196 34.8946 52.7071 34.7071C52.8946 34.5196 53 34.2652 53 34C53 33.7348 52.8946 33.4804 52.7071 33.2929C52.5196 33.1054 52.2652 33 52 33H35C34.2044 33 33.4413 33.3161 32.8787 33.8787C32.3161 34.4413 32 35.2044 32 36V52C32 52.7956 32.3161 53.5587 32.8787 54.1213C33.4413 54.6839 34.2044 55 35 55H55C55.5304 55 56.0391 54.7893 56.4142 54.4142C56.7893 54.0391 57 53.5304 57 53V39C57 38.4696 56.7893 37.9609 56.4142 37.5858C56.0391 37.2107 55.5304 37 55 37ZM55 53H35C34.7348 53 34.4804 52.8946 34.2929 52.7071C34.1054 52.5196 34 52.2652 34 52V38.8287C34.3211 38.9426 34.6593 39.0005 35 39H55V53ZM49 45.5C49 45.2033 49.088 44.9133 49.2528 44.6666C49.4176 44.42 49.6519 44.2277 49.926 44.1142C50.2001 44.0007 50.5017 43.9709 50.7926 44.0288C51.0836 44.0867 51.3509 44.2296 51.5607 44.4393C51.7704 44.6491 51.9133 44.9164 51.9712 45.2074C52.0291 45.4983 51.9993 45.7999 51.8858 46.074C51.7723 46.3481 51.58 46.5824 51.3334 46.7472C51.0867 46.912 50.7967 47 50.5 47C50.1022 47 49.7206 46.842 49.4393 46.5607C49.158 46.2794 49 45.8978 49 45.5Z" fill="#35A1FF"/>
</svg>
