<svg width="120" height="23" viewBox="0 0 120 23" fill="none" xmlns="http://www.w3.org/2000/svg">
<path d="M9.70584 18.36C4.80984 18.36 0.873842 14.832 0.873842 9.528C0.873842 4.224 4.90584 0.623999 9.65784 0.623999C14.7698 0.623999 17.0258 3.912 17.5778 6.36L14.0018 7.488C13.7378 6.312 12.6578 4.32 9.65784 4.32C7.37784 4.32 4.80984 5.952 4.80984 9.528C4.80984 12.72 7.16184 14.568 9.70584 14.568C12.6578 14.568 13.8338 12.6 14.1698 11.376L17.7938 12.408C17.2418 14.76 14.9858 18.36 9.70584 18.36ZM27.1203 6.072V9.672C26.7123 9.576 26.3283 9.552 25.9683 9.552C24.5043 9.552 23.1843 10.416 23.1843 12.792V18H19.5363V6.072H23.0643V7.68C23.6883 6.336 25.2003 5.952 26.1603 5.952C26.5203 5.952 26.8803 6 27.1203 6.072ZM34.1191 22.584H30.2791L32.9911 16.392L27.9751 6.072H32.0551L34.9591 12.456L37.5991 6.072H41.4631L34.1191 22.584ZM46.4821 22.56H42.8341V6.072H46.3621V7.296C46.8661 6.528 48.1621 5.784 49.8661 5.784C53.3221 5.784 55.4101 8.424 55.4101 12C55.4101 15.648 53.0581 18.264 49.7221 18.264C48.1861 18.264 47.0341 17.736 46.4821 17.064V22.56ZM51.8341 12.024C51.8341 10.032 50.5621 9.072 49.1221 9.072C47.7061 9.072 46.4341 10.032 46.4341 12.024C46.4341 13.992 47.7061 15 49.1221 15C50.5621 15 51.8341 14.016 51.8341 12.024ZM61.6283 2.592V6.072H63.9563V9.264H61.6283V13.728C61.6283 14.712 62.1563 14.976 62.9483 14.976C63.3323 14.976 63.6923 14.904 63.9083 14.856V17.88C63.7643 17.952 63.1643 18.216 62.0123 18.216C59.5403 18.216 58.0283 16.752 58.0283 14.376V9.264H55.9163V6.072H56.5163C57.7643 6.072 58.3643 5.232 58.3643 4.128V2.592H61.6283ZM71.393 15C72.785 15 74.081 14.04 74.081 12.024C74.081 10.008 72.785 9.072 71.393 9.072C70.025 9.072 68.705 10.008 68.705 12.024C68.705 14.016 70.025 15 71.393 15ZM71.393 5.712C74.969 5.712 77.729 8.328 77.729 12.024C77.729 15.72 74.969 18.36 71.393 18.36C67.841 18.36 65.057 15.72 65.057 12.024C65.057 8.328 67.841 5.712 71.393 5.712ZM78.8772 14.712C78.8772 12.6 80.4372 11.4 82.4052 11.112L85.2132 10.68C85.8612 10.584 86.0772 10.272 86.0772 9.864C86.0772 9.168 85.4772 8.568 84.3252 8.568C83.0532 8.568 82.3572 9.432 82.2852 10.32L79.1172 9.672C79.2612 7.968 80.8452 5.712 84.3492 5.712C88.2132 5.712 89.6292 7.872 89.6292 10.32V16.152C89.6292 17.088 89.7492 17.88 89.7732 18H86.4852C86.4612 17.904 86.3652 17.472 86.3652 16.656C85.7412 17.664 84.5892 18.336 83.0052 18.336C80.3892 18.336 78.8772 16.608 78.8772 14.712ZM83.8932 15.696C84.9732 15.696 86.0772 15.168 86.0772 13.32V12.792L83.8212 13.152C83.0532 13.272 82.4772 13.632 82.4772 14.472C82.4772 15.096 82.8852 15.696 83.8932 15.696ZM95.8668 22.56H92.2188V6.072H95.7468V7.296C96.2508 6.528 97.5468 5.784 99.2508 5.784C102.707 5.784 104.795 8.424 104.795 12C104.795 15.648 102.443 18.264 99.1068 18.264C97.5708 18.264 96.4188 17.736 95.8668 17.064V22.56ZM101.219 12.024C101.219 10.032 99.9468 9.072 98.5068 9.072C97.0908 9.072 95.8188 10.032 95.8188 12.024C95.8188 13.992 97.0908 15 98.5068 15C99.9468 15 101.219 14.016 101.219 12.024ZM110.316 22.56H106.668V6.072H110.196V7.296C110.7 6.528 111.996 5.784 113.7 5.784C117.156 5.784 119.244 8.424 119.244 12C119.244 15.648 116.892 18.264 113.556 18.264C112.02 18.264 110.868 17.736 110.316 17.064V22.56ZM115.668 12.024C115.668 10.032 114.396 9.072 112.956 9.072C111.54 9.072 110.268 10.032 110.268 12.024C110.268 13.992 111.54 15 112.956 15C114.396 15 115.668 14.016 115.668 12.024Z" fill="#7A8FAF"/>
</svg>
