<svg width="54" height="54" viewBox="0 0 54 54" fill="none" xmlns="http://www.w3.org/2000/svg">
<rect width="54" height="54" rx="27" fill="#35A1FF"/>
<path d="M39.0343 27.9583C38.8509 30.2621 38.0101 32.4649 36.6117 34.3049C35.2134 36.1449 33.3162 37.5448 31.1456 38.3383C28.975 39.1318 26.6223 39.2856 24.3669 38.7813C22.1115 38.277 20.0482 37.1359 18.4223 35.4935C16.7964 33.8511 15.676 31.7765 15.1944 29.5162C14.7129 27.2558 14.8902 24.9048 15.7055 22.7423C16.5208 20.5798 17.9397 18.6967 19.7937 17.3169C21.6476 15.9371 23.8587 15.1185 26.1643 14.9583" stroke="white" stroke-width="2" stroke-linecap="round" stroke-linejoin="round"/>
<path d="M32.1814 29.0243C31.8461 29.8875 31.3008 30.6535 30.595 31.253C29.8892 31.8525 29.0451 32.2666 28.139 32.4579C27.2329 32.6492 26.2935 32.6116 25.4056 32.3485C24.5176 32.0855 23.7093 31.6053 23.0537 30.9513C22.398 30.2973 21.9157 29.4902 21.6503 28.603C21.385 27.7158 21.345 26.7764 21.534 25.8698C21.7229 24.9633 22.1349 24.1181 22.7325 23.4107C23.3302 22.7034 24.0948 22.1562 24.9571 21.8186M27 27L31.6428 22.3572M31.6428 22.3572L35.3571 23.2857L39.0714 19.5714L35.3571 18.6429L34.4286 14.9286L30.7143 18.6429L31.6428 22.3572Z" stroke="white" stroke-width="2" stroke-linecap="round" stroke-linejoin="round"/>
</svg>
